<svg xmlns="http://www.w3.org/2000/svg" xmlns:xlink="http://www.w3.org/1999/xlink" width="400" zoomAndPan="magnify" viewBox="0 0 300 74.999997" height="100" preserveAspectRatio="xMidYMid meet" version="1.0"><defs><g/></defs><g fill="#000000" fill-opacity="1"><g transform="translate(21.518069, 43.16583)"><g><path d="M 3.8125 -24.203125 C 3.582031 -24.234375 3.40625 -24.382812 3.28125 -24.65625 C 3.15625 -24.9375 3.09375 -25.253906 3.09375 -25.609375 C 3.09375 -25.960938 3.15625 -26.296875 3.28125 -26.609375 C 3.40625 -26.921875 3.597656 -27.128906 3.859375 -27.234375 C 4.535156 -27.535156 5.488281 -27.828125 6.71875 -28.109375 C 7.957031 -28.398438 9.332031 -28.671875 10.84375 -28.921875 C 12.351562 -29.179688 13.90625 -29.378906 15.5 -29.515625 C 17.101562 -29.648438 18.617188 -29.71875 20.046875 -29.71875 C 21.085938 -29.71875 22.046875 -29.671875 22.921875 -29.578125 C 23.804688 -29.492188 24.5625 -29.351562 25.1875 -29.15625 C 25.34375 -29.101562 25.460938 -28.96875 25.546875 -28.75 C 25.640625 -28.539062 25.6875 -28.3125 25.6875 -28.0625 C 25.6875 -27.757812 25.617188 -27.472656 25.484375 -27.203125 C 25.359375 -26.941406 25.160156 -26.785156 24.890625 -26.734375 C 24.285156 -26.609375 23.65625 -26.429688 23 -26.203125 C 22.34375 -25.984375 21.796875 -25.757812 21.359375 -25.53125 C 20.921875 -25.300781 20.703125 -25.113281 20.703125 -24.96875 L 20.703125 -24.921875 C 20.847656 -24.347656 20.984375 -23.238281 21.109375 -21.59375 C 21.234375 -19.957031 21.296875 -18.019531 21.296875 -15.78125 C 21.296875 -13.820312 21.21875 -11.707031 21.0625 -9.4375 C 20.914062 -7.175781 20.664062 -4.90625 20.3125 -2.625 C 19.96875 -0.34375 19.472656 1.828125 18.828125 3.890625 C 18.179688 5.953125 17.375 7.796875 16.40625 9.421875 C 15.4375 11.046875 14.269531 12.328125 12.90625 13.265625 C 11.550781 14.210938 9.96875 14.6875 8.15625 14.6875 C 6.820312 14.6875 5.6875 14.476562 4.75 14.0625 C 3.820312 13.644531 3.070312 13.101562 2.5 12.4375 C 1.9375 11.769531 1.523438 11.046875 1.265625 10.265625 C 1.003906 9.484375 0.875 8.726562 0.875 8 C 0.875 7.144531 1.023438 6.414062 1.328125 5.8125 C 1.628906 5.207031 2.039062 4.859375 2.5625 4.765625 C 2.613281 4.765625 2.664062 4.753906 2.71875 4.734375 C 2.769531 4.722656 2.804688 4.71875 2.828125 4.71875 C 3.285156 4.71875 3.664062 4.957031 3.96875 5.4375 C 4.269531 5.914062 4.457031 6.796875 4.53125 8.078125 C 4.582031 8.859375 4.863281 9.460938 5.375 9.890625 C 5.894531 10.316406 6.546875 10.53125 7.328125 10.53125 L 7.625 10.53125 C 8.582031 10.488281 9.375 9.988281 10 9.03125 C 10.632812 8.070312 11.132812 6.789062 11.5 5.1875 C 11.863281 3.59375 12.117188 1.800781 12.265625 -0.1875 C 12.421875 -2.175781 12.5 -4.203125 12.5 -6.265625 C 12.5 -8.484375 12.441406 -10.632812 12.328125 -12.71875 C 12.210938 -14.8125 12.078125 -16.664062 11.921875 -18.28125 C 11.773438 -19.894531 11.640625 -21.101562 11.515625 -21.90625 C 11.441406 -22.53125 11.34375 -22.988281 11.21875 -23.28125 C 11.09375 -23.570312 10.847656 -23.753906 10.484375 -23.828125 C 10.117188 -23.898438 9.503906 -23.9375 8.640625 -23.9375 C 7.867188 -23.9375 7.070312 -23.96875 6.25 -24.03125 C 5.425781 -24.09375 4.613281 -24.148438 3.8125 -24.203125 Z M 3.8125 -24.203125 "/></g></g></g><g fill="#000000" fill-opacity="1"><g transform="translate(48.978456, 43.16583)"><g><path d="M 14.875 12.15625 C 14.300781 12.101562 13.914062 12 13.71875 11.84375 C 13.53125 11.695312 13.4375 11.5 13.4375 11.25 C 13.4375 11.03125 13.472656 10.785156 13.546875 10.515625 C 13.628906 10.253906 13.671875 9.972656 13.671875 9.671875 C 13.671875 9.441406 13.632812 9.210938 13.5625 8.984375 C 13.5625 8.960938 13.550781 8.953125 13.53125 8.953125 C 13.519531 8.953125 13.515625 8.953125 13.515625 8.953125 C 13.460938 8.953125 13.359375 9.070312 13.203125 9.3125 C 13.054688 9.550781 12.828125 9.832031 12.515625 10.15625 C 12.203125 10.488281 11.773438 10.785156 11.234375 11.046875 C 10.691406 11.304688 9.992188 11.460938 9.140625 11.515625 L 8.609375 11.515625 C 7.117188 11.515625 5.898438 11.25 4.953125 10.71875 C 4.015625 10.195312 3.269531 9.503906 2.71875 8.640625 C 2.164062 7.785156 1.722656 6.867188 1.390625 5.890625 C 1.191406 5.234375 1.09375 4.578125 1.09375 3.921875 C 1.09375 2.972656 1.269531 1.988281 1.625 0.96875 C 1.976562 -0.0507812 2.503906 -0.992188 3.203125 -1.859375 C 3.910156 -2.734375 4.78125 -3.4375 5.8125 -3.96875 C 6.84375 -4.5 8.023438 -4.765625 9.359375 -4.765625 C 10.398438 -4.765625 11.238281 -4.644531 11.875 -4.40625 C 12.519531 -4.164062 13.007812 -3.914062 13.34375 -3.65625 C 13.6875 -3.40625 13.921875 -3.28125 14.046875 -3.28125 C 14.148438 -3.28125 14.203125 -3.394531 14.203125 -3.625 L 14.203125 -3.78125 C 14.171875 -4.601562 14.15625 -5.519531 14.15625 -6.53125 C 14.15625 -7.539062 14.109375 -8.539062 14.015625 -9.53125 C 13.929688 -10.53125 13.742188 -11.453125 13.453125 -12.296875 C 13.171875 -13.140625 12.738281 -13.816406 12.15625 -14.328125 C 11.582031 -14.847656 10.800781 -15.117188 9.8125 -15.140625 C 9.207031 -15.117188 8.535156 -14.867188 7.796875 -14.390625 C 7.054688 -13.910156 6.414062 -13.109375 5.875 -11.984375 C 5.332031 -10.867188 5.046875 -9.328125 5.015625 -7.359375 C 5.015625 -6.734375 4.832031 -6.269531 4.46875 -5.96875 C 4.101562 -5.664062 3.679688 -5.515625 3.203125 -5.515625 C 2.679688 -5.515625 2.1875 -5.691406 1.71875 -6.046875 C 1.25 -6.398438 0.988281 -6.890625 0.9375 -7.515625 C 0.9375 -7.640625 0.929688 -7.773438 0.921875 -7.921875 C 0.910156 -8.078125 0.90625 -8.21875 0.90625 -8.34375 C 0.90625 -10.914062 1.671875 -13 3.203125 -14.59375 C 4.742188 -16.195312 7.023438 -17 10.046875 -17 L 10.6875 -17 C 12.675781 -17 14.316406 -16.625 15.609375 -15.875 C 16.910156 -15.132812 17.925781 -14.144531 18.65625 -12.90625 C 19.382812 -11.675781 19.894531 -10.285156 20.1875 -8.734375 C 20.476562 -7.191406 20.625 -5.601562 20.625 -3.96875 C 20.625 -2.15625 20.503906 -0.398438 20.265625 1.296875 C 20.023438 3.003906 19.757812 4.5 19.46875 5.78125 C 19.175781 7.0625 18.96875 7.96875 18.84375 8.5 C 18.59375 9.507812 18.179688 10.378906 17.609375 11.109375 C 17.046875 11.835938 16.257812 12.203125 15.25 12.203125 C 15.207031 12.203125 15.144531 12.191406 15.0625 12.171875 C 14.988281 12.160156 14.925781 12.15625 14.875 12.15625 Z M 9.515625 9.359375 L 9.5625 9.359375 C 10.4375 9.359375 11.191406 9.125 11.828125 8.65625 C 12.472656 8.195312 12.984375 7.679688 13.359375 7.109375 C 13.742188 6.546875 13.945312 6.128906 13.96875 5.859375 C 14.125 4.472656 14.21875 3.414062 14.25 2.6875 C 14.289062 1.957031 14.3125 1.390625 14.3125 0.984375 L 14.3125 -0.90625 C 14.3125 -1.0625 14.128906 -1.269531 13.765625 -1.53125 C 13.398438 -1.789062 12.953125 -2.023438 12.421875 -2.234375 C 11.890625 -2.453125 11.390625 -2.5625 10.921875 -2.5625 C 9.785156 -2.5625 8.898438 -2.328125 8.265625 -1.859375 C 7.640625 -1.398438 7.1875 -0.859375 6.90625 -0.234375 C 6.632812 0.378906 6.445312 0.9375 6.34375 1.4375 C 6.320312 1.5625 6.28125 1.875 6.21875 2.375 C 6.15625 2.882812 6.125 3.460938 6.125 4.109375 C 6.125 4.867188 6.207031 5.648438 6.375 6.453125 C 6.550781 7.265625 6.882812 7.945312 7.375 8.5 C 7.875 9.050781 8.585938 9.335938 9.515625 9.359375 Z M 9.515625 9.359375 "/></g></g></g><g fill="#000000" fill-opacity="1"><g transform="translate(70.697476, 43.16583)"><g><path d="M 11.828125 -7.515625 L 11.828125 -7.546875 C 11.828125 -7.898438 11.894531 -8.523438 12.03125 -9.421875 C 12.164062 -10.316406 12.234375 -11.253906 12.234375 -12.234375 C 12.234375 -12.960938 12.164062 -13.644531 12.03125 -14.28125 C 11.894531 -14.925781 11.640625 -15.453125 11.265625 -15.859375 C 10.898438 -16.265625 10.378906 -16.46875 9.703125 -16.46875 C 9.628906 -16.46875 9.5625 -16.457031 9.5 -16.4375 C 9.4375 -16.425781 9.367188 -16.421875 9.296875 -16.421875 C 8.640625 -16.347656 8.101562 -15.804688 7.6875 -14.796875 C 7.269531 -13.796875 6.957031 -12.515625 6.75 -10.953125 C 6.550781 -9.390625 6.453125 -7.753906 6.453125 -6.046875 C 6.453125 -4.679688 6.515625 -3.34375 6.640625 -2.03125 C 6.765625 -0.726562 6.945312 0.457031 7.1875 1.53125 C 7.425781 2.601562 7.71875 3.453125 8.0625 4.078125 C 8.40625 4.703125 8.800781 5.015625 9.25 5.015625 C 9.53125 5.015625 9.859375 4.894531 10.234375 4.65625 C 10.609375 4.425781 10.953125 3.972656 11.265625 3.296875 C 11.585938 2.628906 11.773438 1.644531 11.828125 0.34375 C 11.847656 -0.0820312 12.046875 -0.394531 12.421875 -0.59375 C 12.796875 -0.800781 13.1875 -0.90625 13.59375 -0.90625 C 14 -0.90625 14.359375 -0.816406 14.671875 -0.640625 C 14.984375 -0.460938 15.140625 -0.210938 15.140625 0.109375 L 15.140625 0.234375 C 14.960938 1.835938 14.609375 3.144531 14.078125 4.15625 C 13.554688 5.164062 12.96875 5.9375 12.3125 6.46875 C 11.65625 7.007812 11.035156 7.378906 10.453125 7.578125 C 9.878906 7.785156 9.441406 7.890625 9.140625 7.890625 L 9.03125 7.890625 C 7.738281 7.890625 6.582031 7.472656 5.5625 6.640625 C 4.550781 5.816406 3.6875 4.703125 2.96875 3.296875 C 2.25 1.898438 1.707031 0.34375 1.34375 -1.375 C 0.976562 -3.101562 0.796875 -4.847656 0.796875 -6.609375 C 0.796875 -8.191406 0.953125 -9.722656 1.265625 -11.203125 C 1.578125 -12.691406 2.0625 -14.03125 2.71875 -15.21875 C 3.375 -16.40625 4.210938 -17.34375 5.234375 -18.03125 C 6.253906 -18.726562 7.457031 -19.085938 8.84375 -19.109375 L 8.90625 -19.109375 C 10.070312 -19.109375 11.066406 -18.820312 11.890625 -18.25 C 12.722656 -17.6875 13.410156 -16.929688 13.953125 -15.984375 C 14.492188 -15.046875 14.890625 -14.003906 15.140625 -12.859375 C 15.390625 -11.710938 15.515625 -10.546875 15.515625 -9.359375 C 15.515625 -9.054688 15.515625 -8.757812 15.515625 -8.46875 C 15.515625 -8.1875 15.492188 -7.90625 15.453125 -7.625 C 15.453125 -7.476562 15.425781 -7.265625 15.375 -6.984375 C 15.320312 -6.710938 15.160156 -6.445312 14.890625 -6.1875 C 14.628906 -5.9375 14.160156 -5.785156 13.484375 -5.734375 L 13.140625 -5.734375 C 12.566406 -5.734375 12.195312 -5.875 12.03125 -6.15625 C 11.863281 -6.4375 11.78125 -6.710938 11.78125 -6.984375 C 11.78125 -7.085938 11.785156 -7.1875 11.796875 -7.28125 C 11.816406 -7.382812 11.828125 -7.460938 11.828125 -7.515625 Z M 11.828125 -7.515625 "/></g></g></g><g fill="#000000" fill-opacity="1"><g transform="translate(87.015066, 43.16583)"><g><path d="M 1.359375 -24.546875 L 1.359375 -25.03125 C 1.359375 -26.269531 1.597656 -27.253906 2.078125 -27.984375 C 2.554688 -28.710938 3.164062 -29.242188 3.90625 -29.578125 C 4.644531 -29.921875 5.429688 -30.09375 6.265625 -30.09375 C 7.117188 -30.09375 7.945312 -29.941406 8.75 -29.640625 C 9.5625 -29.335938 10.222656 -28.921875 10.734375 -28.390625 C 11.253906 -27.867188 11.515625 -27.28125 11.515625 -26.625 C 11.515625 -26.601562 11.507812 -26.554688 11.5 -26.484375 C 11.488281 -26.421875 11.484375 -26.367188 11.484375 -26.328125 C 11.484375 -26.328125 11.4375 -25.9375 11.34375 -25.15625 C 11.257812 -24.375 11.144531 -23.335938 11 -22.046875 C 10.863281 -20.765625 10.707031 -19.34375 10.53125 -17.78125 C 10.351562 -16.226562 10.175781 -14.660156 10 -13.078125 C 9.832031 -11.503906 9.675781 -10.046875 9.53125 -8.703125 C 9.394531 -7.359375 9.28125 -6.25 9.1875 -5.375 C 9.101562 -4.507812 9.0625 -4.015625 9.0625 -3.890625 C 9.894531 -4.941406 10.832031 -6.039062 11.875 -7.1875 C 12.914062 -8.332031 13.957031 -9.398438 15 -10.390625 C 16.050781 -11.390625 17.007812 -12.21875 17.875 -12.875 C 18.75 -13.53125 19.425781 -13.894531 19.90625 -13.96875 C 20.132812 -14.09375 20.398438 -14.15625 20.703125 -14.15625 C 21.078125 -14.15625 21.40625 -14.035156 21.6875 -13.796875 C 21.976562 -13.554688 22.125 -13.25 22.125 -12.875 C 22.125 -12.570312 21.988281 -12.242188 21.71875 -11.890625 C 21.007812 -11.035156 20.296875 -10.21875 19.578125 -9.4375 C 18.859375 -8.65625 18.070312 -7.835938 17.21875 -6.984375 L 17.296875 -6.984375 C 17.671875 -6.984375 18.039062 -6.710938 18.40625 -6.171875 C 18.769531 -5.628906 19.109375 -4.914062 19.421875 -4.03125 C 19.742188 -3.15625 20 -2.203125 20.1875 -1.171875 C 20.375 -0.140625 20.46875 0.878906 20.46875 1.890625 C 20.46875 2.972656 20.34375 3.941406 20.09375 4.796875 C 19.84375 5.648438 19.390625 6.28125 18.734375 6.6875 C 18.222656 7.007812 17.691406 7.171875 17.140625 7.171875 C 16.234375 7.171875 15.476562 6.734375 14.875 5.859375 C 14.625 5.472656 14.390625 4.953125 14.171875 4.296875 C 13.960938 3.648438 13.769531 2.953125 13.59375 2.203125 C 13.414062 1.460938 13.25 0.757812 13.09375 0.09375 C 12.945312 -0.570312 12.796875 -1.117188 12.640625 -1.546875 C 12.492188 -1.972656 12.332031 -2.1875 12.15625 -2.1875 C 12.101562 -2.1875 12.054688 -2.160156 12.015625 -2.109375 C 11.453125 -1.484375 10.894531 -0.859375 10.34375 -0.234375 C 9.789062 0.378906 9.25 1 8.71875 1.625 C 8.59375 1.769531 8.53125 2.175781 8.53125 2.84375 C 8.53125 3.519531 8.507812 4.316406 8.46875 5.234375 C 8.4375 6.148438 8.316406 7.0625 8.109375 7.96875 C 7.910156 8.875 7.550781 9.644531 7.03125 10.28125 C 6.519531 10.925781 5.773438 11.300781 4.796875 11.40625 L 4.53125 11.40625 C 3.601562 11.40625 2.898438 10.898438 2.421875 9.890625 C 1.941406 8.890625 1.617188 7.441406 1.453125 5.546875 C 1.285156 3.660156 1.203125 1.382812 1.203125 -1.28125 C 1.203125 -3.769531 1.234375 -6.550781 1.296875 -9.625 C 1.359375 -12.695312 1.390625 -16 1.390625 -19.53125 C 1.390625 -20.332031 1.390625 -21.15625 1.390625 -22 C 1.390625 -22.84375 1.378906 -23.691406 1.359375 -24.546875 Z M 1.359375 -24.546875 "/></g></g></g><g fill="#000000" fill-opacity="1"><g transform="translate(110.433825, 43.16583)"><g/></g></g><g fill="#000000" fill-opacity="1"><g transform="translate(119.876869, 43.16583)"><g><path d="M 1.65625 -23.296875 C 1.863281 -23.804688 2.160156 -24.171875 2.546875 -24.390625 C 2.941406 -24.617188 3.335938 -24.734375 3.734375 -24.734375 C 4.242188 -24.734375 4.71875 -24.582031 5.15625 -24.28125 C 5.59375 -23.976562 5.863281 -23.578125 5.96875 -23.078125 C 6.019531 -22.796875 6.046875 -22.441406 6.046875 -22.015625 C 6.046875 -21.585938 6.046875 -21.109375 6.046875 -20.578125 C 6.046875 -19.546875 6.023438 -18.363281 5.984375 -17.03125 C 5.941406 -15.695312 5.890625 -14.316406 5.828125 -12.890625 C 5.765625 -11.472656 5.703125 -10.101562 5.640625 -8.78125 C 5.578125 -7.457031 5.515625 -6.269531 5.453125 -5.21875 C 5.390625 -4.175781 5.347656 -3.378906 5.328125 -2.828125 C 5.328125 -2.472656 5.453125 -2.296875 5.703125 -2.296875 C 5.753906 -2.296875 5.796875 -2.300781 5.828125 -2.3125 C 5.867188 -2.332031 5.914062 -2.34375 5.96875 -2.34375 C 6.445312 -2.394531 6.914062 -2.429688 7.375 -2.453125 C 7.84375 -2.484375 8.304688 -2.5 8.765625 -2.5 C 9.191406 -2.5 9.625 -2.484375 10.0625 -2.453125 C 10.5 -2.429688 10.9375 -2.394531 11.375 -2.34375 L 11.4375 -2.34375 C 11.59375 -2.34375 11.671875 -2.457031 11.671875 -2.6875 C 11.671875 -2.6875 11.660156 -3.050781 11.640625 -3.78125 C 11.628906 -4.507812 11.617188 -5.476562 11.609375 -6.6875 C 11.597656 -7.894531 11.59375 -9.21875 11.59375 -10.65625 C 11.59375 -12.007812 11.597656 -13.390625 11.609375 -14.796875 C 11.617188 -16.210938 11.648438 -17.554688 11.703125 -18.828125 C 11.753906 -20.097656 11.820312 -21.210938 11.90625 -22.171875 C 12 -23.128906 12.109375 -23.832031 12.234375 -24.28125 C 12.429688 -24.9375 12.863281 -25.445312 13.53125 -25.8125 C 14.207031 -26.175781 14.921875 -26.359375 15.671875 -26.359375 C 16.398438 -26.359375 17.078125 -26.1875 17.703125 -25.84375 C 18.335938 -25.507812 18.78125 -24.976562 19.03125 -24.25 C 19.257812 -23.613281 19.421875 -22.664062 19.515625 -21.40625 C 19.617188 -20.15625 19.671875 -18.707031 19.671875 -17.0625 C 19.671875 -15.40625 19.625 -13.597656 19.53125 -11.640625 C 19.445312 -9.691406 19.335938 -7.710938 19.203125 -5.703125 C 19.066406 -3.691406 18.898438 -1.742188 18.703125 0.140625 C 18.515625 2.035156 18.320312 3.769531 18.125 5.34375 C 17.925781 6.914062 17.734375 8.238281 17.546875 9.3125 C 17.359375 10.382812 17.175781 11.109375 17 11.484375 C 16.738281 12.054688 16.378906 12.472656 15.921875 12.734375 C 15.472656 13.003906 15.023438 13.140625 14.578125 13.140625 C 14.078125 13.140625 13.625 13 13.21875 12.71875 C 12.8125 12.445312 12.5625 12.070312 12.46875 11.59375 C 12.1875 10.257812 11.992188 9.046875 11.890625 7.953125 C 11.796875 6.859375 11.738281 5.753906 11.71875 4.640625 C 11.707031 3.535156 11.664062 2.316406 11.59375 0.984375 L 11.59375 0.90625 C 11.59375 0.726562 11.476562 0.640625 11.25 0.640625 C 11.125 0.640625 11.023438 0.65625 10.953125 0.6875 C 10.773438 0.65625 10.578125 0.640625 10.359375 0.640625 C 10.148438 0.640625 9.929688 0.640625 9.703125 0.640625 C 9.097656 0.640625 8.445312 0.65625 7.75 0.6875 C 7.0625 0.726562 6.390625 0.773438 5.734375 0.828125 C 5.515625 0.828125 5.40625 0.929688 5.40625 1.140625 L 5.40625 1.390625 C 5.375 2.222656 5.332031 3.125 5.28125 4.09375 C 5.238281 5.0625 5.175781 6 5.09375 6.90625 C 5.019531 7.8125 4.929688 8.597656 4.828125 9.265625 C 4.734375 9.929688 4.625 10.394531 4.5 10.65625 C 4.34375 10.976562 4.144531 11.207031 3.90625 11.34375 C 3.664062 11.488281 3.410156 11.5625 3.140625 11.5625 C 2.835938 11.5625 2.554688 11.488281 2.296875 11.34375 C 2.046875 11.207031 1.882812 11.015625 1.8125 10.765625 C 1.488281 9.785156 1.21875 8.460938 1 6.796875 C 0.789062 5.140625 0.640625 3.285156 0.546875 1.234375 C 0.460938 -0.816406 0.421875 -2.925781 0.421875 -5.09375 C 0.421875 -7.15625 0.453125 -9.179688 0.515625 -11.171875 C 0.578125 -13.160156 0.671875 -15 0.796875 -16.6875 C 0.921875 -18.375 1.054688 -19.796875 1.203125 -20.953125 C 1.359375 -22.117188 1.507812 -22.898438 1.65625 -23.296875 Z M 1.65625 -23.296875 "/></g></g></g><g fill="#000000" fill-opacity="1"><g transform="translate(140.764895, 43.16583)"><g><path d="M 14.875 12.15625 C 14.300781 12.101562 13.914062 12 13.71875 11.84375 C 13.53125 11.695312 13.4375 11.5 13.4375 11.25 C 13.4375 11.03125 13.472656 10.785156 13.546875 10.515625 C 13.628906 10.253906 13.671875 9.972656 13.671875 9.671875 C 13.671875 9.441406 13.632812 9.210938 13.5625 8.984375 C 13.5625 8.960938 13.550781 8.953125 13.53125 8.953125 C 13.519531 8.953125 13.515625 8.953125 13.515625 8.953125 C 13.460938 8.953125 13.359375 9.070312 13.203125 9.3125 C 13.054688 9.550781 12.828125 9.832031 12.515625 10.15625 C 12.203125 10.488281 11.773438 10.785156 11.234375 11.046875 C 10.691406 11.304688 9.992188 11.460938 9.140625 11.515625 L 8.609375 11.515625 C 7.117188 11.515625 5.898438 11.25 4.953125 10.71875 C 4.015625 10.195312 3.269531 9.503906 2.71875 8.640625 C 2.164062 7.785156 1.722656 6.867188 1.390625 5.890625 C 1.191406 5.234375 1.09375 4.578125 1.09375 3.921875 C 1.09375 2.972656 1.269531 1.988281 1.625 0.96875 C 1.976562 -0.0507812 2.503906 -0.992188 3.203125 -1.859375 C 3.910156 -2.734375 4.78125 -3.4375 5.8125 -3.96875 C 6.84375 -4.5 8.023438 -4.765625 9.359375 -4.765625 C 10.398438 -4.765625 11.238281 -4.644531 11.875 -4.40625 C 12.519531 -4.164062 13.007812 -3.914062 13.34375 -3.65625 C 13.6875 -3.40625 13.921875 -3.28125 14.046875 -3.28125 C 14.148438 -3.28125 14.203125 -3.394531 14.203125 -3.625 L 14.203125 -3.78125 C 14.171875 -4.601562 14.15625 -5.519531 14.15625 -6.53125 C 14.15625 -7.539062 14.109375 -8.539062 14.015625 -9.53125 C 13.929688 -10.53125 13.742188 -11.453125 13.453125 -12.296875 C 13.171875 -13.140625 12.738281 -13.816406 12.15625 -14.328125 C 11.582031 -14.847656 10.800781 -15.117188 9.8125 -15.140625 C 9.207031 -15.117188 8.535156 -14.867188 7.796875 -14.390625 C 7.054688 -13.910156 6.414062 -13.109375 5.875 -11.984375 C 5.332031 -10.867188 5.046875 -9.328125 5.015625 -7.359375 C 5.015625 -6.734375 4.832031 -6.269531 4.46875 -5.96875 C 4.101562 -5.664062 3.679688 -5.515625 3.203125 -5.515625 C 2.679688 -5.515625 2.1875 -5.691406 1.71875 -6.046875 C 1.25 -6.398438 0.988281 -6.890625 0.9375 -7.515625 C 0.9375 -7.640625 0.929688 -7.773438 0.921875 -7.921875 C 0.910156 -8.078125 0.90625 -8.21875 0.90625 -8.34375 C 0.90625 -10.914062 1.671875 -13 3.203125 -14.59375 C 4.742188 -16.195312 7.023438 -17 10.046875 -17 L 10.6875 -17 C 12.675781 -17 14.316406 -16.625 15.609375 -15.875 C 16.910156 -15.132812 17.925781 -14.144531 18.65625 -12.90625 C 19.382812 -11.675781 19.894531 -10.285156 20.1875 -8.734375 C 20.476562 -7.191406 20.625 -5.601562 20.625 -3.96875 C 20.625 -2.15625 20.503906 -0.398438 20.265625 1.296875 C 20.023438 3.003906 19.757812 4.5 19.46875 5.78125 C 19.175781 7.0625 18.96875 7.96875 18.84375 8.5 C 18.59375 9.507812 18.179688 10.378906 17.609375 11.109375 C 17.046875 11.835938 16.257812 12.203125 15.25 12.203125 C 15.207031 12.203125 15.144531 12.191406 15.0625 12.171875 C 14.988281 12.160156 14.925781 12.15625 14.875 12.15625 Z M 9.515625 9.359375 L 9.5625 9.359375 C 10.4375 9.359375 11.191406 9.125 11.828125 8.65625 C 12.472656 8.195312 12.984375 7.679688 13.359375 7.109375 C 13.742188 6.546875 13.945312 6.128906 13.96875 5.859375 C 14.125 4.472656 14.21875 3.414062 14.25 2.6875 C 14.289062 1.957031 14.3125 1.390625 14.3125 0.984375 L 14.3125 -0.90625 C 14.3125 -1.0625 14.128906 -1.269531 13.765625 -1.53125 C 13.398438 -1.789062 12.953125 -2.023438 12.421875 -2.234375 C 11.890625 -2.453125 11.390625 -2.5625 10.921875 -2.5625 C 9.785156 -2.5625 8.898438 -2.328125 8.265625 -1.859375 C 7.640625 -1.398438 7.1875 -0.859375 6.90625 -0.234375 C 6.632812 0.378906 6.445312 0.9375 6.34375 1.4375 C 6.320312 1.5625 6.28125 1.875 6.21875 2.375 C 6.15625 2.882812 6.125 3.460938 6.125 4.109375 C 6.125 4.867188 6.207031 5.648438 6.375 6.453125 C 6.550781 7.265625 6.882812 7.945312 7.375 8.5 C 7.875 9.050781 8.585938 9.335938 9.515625 9.359375 Z M 9.515625 9.359375 "/></g></g></g><g fill="#000000" fill-opacity="1"><g transform="translate(162.483916, 43.16583)"><g><path d="M 30.21875 5.703125 C 30.1875 6.023438 30 6.335938 29.65625 6.640625 C 29.320312 6.941406 28.910156 7.1875 28.421875 7.375 C 27.929688 7.570312 27.445312 7.671875 26.96875 7.671875 C 26.488281 7.671875 26.070312 7.554688 25.71875 7.328125 C 25.363281 7.097656 25.1875 6.707031 25.1875 6.15625 C 25.1875 6.101562 25.191406 6.039062 25.203125 5.96875 C 25.222656 5.894531 25.234375 5.832031 25.234375 5.78125 C 25.328125 5.050781 25.410156 4.132812 25.484375 3.03125 C 25.566406 1.9375 25.628906 0.785156 25.671875 -0.421875 C 25.722656 -1.628906 25.75 -2.773438 25.75 -3.859375 C 25.75 -5.066406 25.710938 -6.054688 25.640625 -6.828125 C 25.617188 -8.171875 25.441406 -9.101562 25.109375 -9.625 C 24.785156 -10.15625 24.382812 -10.421875 23.90625 -10.421875 C 23.5 -10.421875 23.066406 -10.269531 22.609375 -9.96875 C 22.160156 -9.664062 21.734375 -9.289062 21.328125 -8.84375 C 20.929688 -8.40625 20.585938 -7.972656 20.296875 -7.546875 C 20.003906 -7.117188 19.820312 -6.769531 19.75 -6.5 C 19.550781 -5.789062 19.390625 -4.859375 19.265625 -3.703125 C 19.140625 -2.546875 19.050781 -1.363281 19 -0.15625 C 18.96875 0.476562 18.945312 1.046875 18.9375 1.546875 C 18.925781 2.046875 18.921875 2.5 18.921875 2.90625 C 18.921875 3.507812 18.925781 3.96875 18.9375 4.28125 C 18.945312 4.601562 18.953125 4.765625 18.953125 4.765625 C 18.929688 5.335938 18.628906 5.800781 18.046875 6.15625 C 17.472656 6.507812 16.910156 6.6875 16.359375 6.6875 C 16.023438 6.6875 15.742188 6.613281 15.515625 6.46875 C 15.296875 6.332031 15.1875 6.128906 15.1875 5.859375 C 15.1875 5.753906 15.191406 5.441406 15.203125 4.921875 C 15.210938 4.410156 15.226562 3.78125 15.25 3.03125 C 15.28125 2.289062 15.304688 1.535156 15.328125 0.765625 C 15.359375 0.00390625 15.378906 -0.671875 15.390625 -1.265625 C 15.398438 -1.859375 15.40625 -2.269531 15.40625 -2.5 L 15.40625 -2.640625 C 15.28125 -4.984375 14.894531 -6.6875 14.25 -7.75 C 13.613281 -8.820312 12.914062 -9.359375 12.15625 -9.359375 C 11.28125 -9.359375 10.4375 -8.71875 9.625 -7.4375 C 8.820312 -6.15625 8.332031 -4.359375 8.15625 -2.046875 C 8.03125 -0.859375 7.945312 0.15625 7.90625 1 C 7.875 1.84375 7.847656 2.6875 7.828125 3.53125 C 7.816406 4.375 7.773438 5.390625 7.703125 6.578125 C 7.679688 7.222656 7.378906 7.765625 6.796875 8.203125 C 6.210938 8.648438 5.597656 8.875 4.953125 8.875 C 4.421875 8.875 3.929688 8.707031 3.484375 8.375 C 3.046875 8.050781 2.738281 7.515625 2.5625 6.765625 C 2.5625 6.765625 2.507812 6.429688 2.40625 5.765625 C 2.3125 5.097656 2.179688 4.207031 2.015625 3.09375 C 1.859375 1.988281 1.695312 0.769531 1.53125 -0.5625 C 1.363281 -1.894531 1.226562 -3.25 1.125 -4.625 C 1.03125 -6 0.984375 -7.265625 0.984375 -8.421875 C 0.984375 -9.753906 1.078125 -10.867188 1.265625 -11.765625 C 1.453125 -12.660156 1.785156 -13.117188 2.265625 -13.140625 C 2.617188 -13.421875 2.984375 -13.640625 3.359375 -13.796875 C 3.734375 -13.960938 4.132812 -14.070312 4.5625 -14.125 C 4.695312 -14.144531 4.828125 -14.15625 4.953125 -14.15625 C 5.078125 -14.15625 5.1875 -14.15625 5.28125 -14.15625 C 6.164062 -14.15625 6.816406 -14.007812 7.234375 -13.71875 C 7.648438 -13.4375 7.925781 -13.085938 8.0625 -12.671875 C 8.195312 -12.253906 8.265625 -11.847656 8.265625 -11.453125 C 8.265625 -11.066406 8.28125 -10.785156 8.3125 -10.609375 C 8.3125 -10.609375 8.535156 -10.773438 8.984375 -11.109375 C 9.441406 -11.453125 10.035156 -11.796875 10.765625 -12.140625 C 11.492188 -12.484375 12.273438 -12.65625 13.109375 -12.65625 C 14.015625 -12.65625 14.929688 -12.328125 15.859375 -11.671875 C 16.796875 -11.015625 17.601562 -9.769531 18.28125 -7.9375 C 18.550781 -8.84375 19.078125 -9.707031 19.859375 -10.53125 C 20.640625 -11.363281 21.566406 -12.046875 22.640625 -12.578125 C 23.710938 -13.109375 24.8125 -13.375 25.9375 -13.375 C 26.875 -13.375 27.757812 -13.160156 28.59375 -12.734375 C 29.34375 -12.347656 29.925781 -11.742188 30.34375 -10.921875 C 30.757812 -10.109375 31.046875 -9.15625 31.203125 -8.0625 C 31.367188 -6.96875 31.453125 -5.816406 31.453125 -4.609375 C 31.453125 -3.296875 31.382812 -1.972656 31.25 -0.640625 C 31.113281 0.691406 30.941406 1.914062 30.734375 3.03125 C 30.535156 4.15625 30.363281 5.046875 30.21875 5.703125 Z M 30.21875 5.703125 "/></g></g></g><g fill="#000000" fill-opacity="1"><g transform="translate(194.741378, 43.16583)"><g><path d="M 1.703125 -11.671875 C 1.722656 -12.242188 2.046875 -12.679688 2.671875 -12.984375 C 3.304688 -13.285156 4.015625 -13.4375 4.796875 -13.4375 C 5.628906 -13.4375 6.394531 -13.257812 7.09375 -12.90625 C 7.800781 -12.5625 8.207031 -12.023438 8.3125 -11.296875 C 8.382812 -10.691406 8.421875 -9.769531 8.421875 -8.53125 C 8.421875 -7.320312 8.375 -5.929688 8.28125 -4.359375 C 8.195312 -2.785156 8.078125 -1.179688 7.921875 0.453125 C 7.773438 2.085938 7.59375 3.601562 7.375 5 C 7.164062 6.394531 6.9375 7.535156 6.6875 8.421875 C 6.582031 8.898438 6.351562 9.257812 6 9.5 C 5.644531 9.738281 5.253906 9.859375 4.828125 9.859375 C 4.398438 9.859375 3.96875 9.753906 3.53125 9.546875 C 3.09375 9.347656 2.734375 9.0625 2.453125 8.6875 C 2.253906 8.207031 2.09375 7.28125 1.96875 5.90625 C 1.84375 4.539062 1.75 2.878906 1.6875 0.921875 C 1.625 -1.023438 1.59375 -3.09375 1.59375 -5.28125 C 1.59375 -6.289062 1.597656 -7.304688 1.609375 -8.328125 C 1.617188 -9.347656 1.632812 -10.363281 1.65625 -11.375 C 1.65625 -11.414062 1.660156 -11.46875 1.671875 -11.53125 C 1.691406 -11.59375 1.703125 -11.640625 1.703125 -11.671875 Z M 5.0625 -22.46875 C 5.664062 -22.414062 6.28125 -22.28125 6.90625 -22.0625 C 7.539062 -21.851562 8.070312 -21.550781 8.5 -21.15625 C 8.925781 -20.769531 9.140625 -20.25 9.140625 -19.59375 L 9.140625 -19.5625 C 9.109375 -18.5 8.710938 -17.734375 7.953125 -17.265625 C 7.203125 -16.804688 6.160156 -16.578125 4.828125 -16.578125 L 4.5 -16.578125 C 3.4375 -16.597656 2.539062 -16.875 1.8125 -17.40625 C 1.082031 -17.9375 0.71875 -18.554688 0.71875 -19.265625 C 0.71875 -19.316406 0.71875 -19.378906 0.71875 -19.453125 C 0.71875 -19.523438 0.726562 -19.585938 0.75 -19.640625 C 0.925781 -20.515625 1.40625 -21.210938 2.1875 -21.734375 C 2.96875 -22.253906 3.785156 -22.515625 4.640625 -22.515625 C 4.722656 -22.515625 4.796875 -22.503906 4.859375 -22.484375 C 4.921875 -22.472656 4.988281 -22.46875 5.0625 -22.46875 Z M 5.0625 -22.46875 "/></g></g></g><g fill="#000000" fill-opacity="1"><g transform="translate(204.864323, 43.16583)"><g><path d="M 0.421875 -25.296875 C 0.421875 -26.429688 0.800781 -27.296875 1.5625 -27.890625 C 2.332031 -28.484375 3.195312 -28.78125 4.15625 -28.78125 C 4.9375 -28.78125 5.691406 -28.585938 6.421875 -28.203125 C 7.148438 -27.828125 7.753906 -27.253906 8.234375 -26.484375 C 8.710938 -25.722656 8.953125 -24.75 8.953125 -23.5625 L 8.953125 -23.375 C 8.898438 -22.363281 8.847656 -21.082031 8.796875 -19.53125 C 8.742188 -17.988281 8.6875 -16.273438 8.625 -14.390625 C 8.5625 -12.503906 8.5 -10.546875 8.4375 -8.515625 C 8.375 -6.484375 8.3125 -4.472656 8.25 -2.484375 C 8.1875 -0.503906 8.125 1.363281 8.0625 3.125 C 8 4.894531 7.945312 6.445312 7.90625 7.78125 C 7.875 9.113281 7.832031 10.144531 7.78125 10.875 C 7.78125 11.726562 7.457031 12.378906 6.8125 12.828125 C 6.175781 13.285156 5.476562 13.515625 4.71875 13.515625 C 3.96875 13.515625 3.273438 13.296875 2.640625 12.859375 C 2.015625 12.421875 1.6875 11.734375 1.65625 10.796875 C 1.476562 9.390625 1.328125 7.632812 1.203125 5.53125 C 1.078125 3.425781 0.96875 1.101562 0.875 -1.4375 C 0.789062 -3.976562 0.722656 -6.625 0.671875 -9.375 C 0.628906 -12.132812 0.585938 -14.867188 0.546875 -17.578125 C 0.503906 -20.285156 0.460938 -22.859375 0.421875 -25.296875 Z M 0.421875 -25.296875 "/></g></g></g><g fill="#000000" fill-opacity="1"><g transform="translate(214.987269, 43.16583)"><g><path d="M 11.703125 11.75 L 11.515625 11.75 C 9.554688 11.75 8.054688 11.265625 7.015625 10.296875 C 5.984375 9.328125 5.28125 7.882812 4.90625 5.96875 C 4.53125 4.050781 4.34375 1.707031 4.34375 -1.0625 C 4.34375 -2.84375 4.382812 -4.816406 4.46875 -6.984375 C 4.5625 -9.148438 4.660156 -11.476562 4.765625 -13.96875 C 3.898438 -14.070312 3.085938 -14.222656 2.328125 -14.421875 C 1.578125 -14.628906 1.140625 -15.007812 1.015625 -15.5625 L 1.015625 -15.59375 C 1.015625 -15.820312 1.203125 -16.066406 1.578125 -16.328125 C 1.960938 -16.597656 2.46875 -16.828125 3.09375 -17.015625 C 3.726562 -17.203125 4.394531 -17.296875 5.09375 -17.296875 C 5.125 -17.546875 5.171875 -18 5.234375 -18.65625 C 5.296875 -19.3125 5.363281 -20.050781 5.4375 -20.875 C 5.507812 -21.707031 5.585938 -22.523438 5.671875 -23.328125 C 5.765625 -24.140625 5.847656 -24.828125 5.921875 -25.390625 C 6.003906 -25.960938 6.070312 -26.296875 6.125 -26.390625 C 6.164062 -26.773438 6.425781 -27.054688 6.90625 -27.234375 C 7.382812 -27.410156 7.914062 -27.5 8.5 -27.5 C 9.070312 -27.5 9.628906 -27.410156 10.171875 -27.234375 C 10.710938 -27.054688 11.035156 -26.800781 11.140625 -26.46875 C 11.242188 -26.164062 11.3125 -25.832031 11.34375 -25.46875 C 11.382812 -25.101562 11.40625 -24.707031 11.40625 -24.28125 C 11.40625 -23.226562 11.316406 -22.113281 11.140625 -20.9375 C 10.960938 -19.769531 10.8125 -18.769531 10.6875 -17.9375 L 10.6875 -17.78125 C 10.6875 -17.507812 10.863281 -17.375 11.21875 -17.375 C 11.394531 -17.34375 11.710938 -17.300781 12.171875 -17.25 C 12.640625 -17.207031 13.140625 -17.160156 13.671875 -17.109375 C 14.203125 -17.054688 14.6875 -17.007812 15.125 -16.96875 C 15.5625 -16.9375 15.84375 -16.894531 15.96875 -16.84375 C 16.175781 -16.769531 16.398438 -16.625 16.640625 -16.40625 C 16.878906 -16.195312 17 -15.953125 17 -15.671875 C 17 -15.421875 16.867188 -15.207031 16.609375 -15.03125 C 16.441406 -14.925781 16.117188 -14.816406 15.640625 -14.703125 C 15.160156 -14.597656 14.609375 -14.5 13.984375 -14.40625 C 13.367188 -14.320312 12.765625 -14.25 12.171875 -14.1875 C 11.585938 -14.125 11.101562 -14.09375 10.71875 -14.09375 C 10.675781 -14.09375 10.597656 -13.707031 10.484375 -12.9375 C 10.367188 -12.164062 10.253906 -11.144531 10.140625 -9.875 C 10.023438 -8.601562 9.929688 -7.191406 9.859375 -5.640625 C 9.785156 -4.097656 9.75 -2.546875 9.75 -0.984375 C 9.75 0.773438 9.816406 2.4375 9.953125 4 C 10.085938 5.5625 10.320312 6.820312 10.65625 7.78125 C 11 8.738281 11.472656 9.21875 12.078125 9.21875 L 12.125 9.21875 C 12.832031 9.21875 13.441406 8.945312 13.953125 8.40625 C 14.472656 7.863281 14.898438 7.179688 15.234375 6.359375 C 15.578125 5.546875 15.828125 4.695312 15.984375 3.8125 C 16.148438 2.9375 16.234375 2.144531 16.234375 1.4375 L 16.234375 1.09375 C 16.234375 0.207031 16.488281 -0.421875 17 -0.796875 C 17.519531 -1.171875 18.082031 -1.359375 18.6875 -1.359375 C 19.269531 -1.359375 19.804688 -1.210938 20.296875 -0.921875 C 20.785156 -0.628906 21.054688 -0.234375 21.109375 0.265625 C 21.109375 0.335938 21.113281 0.414062 21.125 0.5 C 21.144531 0.59375 21.15625 0.703125 21.15625 0.828125 C 21.15625 1.410156 21.082031 2.144531 20.9375 3.03125 C 20.800781 3.925781 20.535156 4.878906 20.140625 5.890625 C 19.753906 6.898438 19.210938 7.84375 18.515625 8.71875 C 17.828125 9.601562 16.921875 10.328125 15.796875 10.890625 C 14.679688 11.460938 13.316406 11.75 11.703125 11.75 Z M 11.703125 11.75 "/></g></g></g><g fill="#000000" fill-opacity="1"><g transform="translate(237.235097, 43.16583)"><g><path d="M 8.078125 -14.65625 C 9.515625 -14.65625 10.757812 -14.363281 11.8125 -13.78125 C 12.875 -13.207031 13.75 -12.4375 14.4375 -11.46875 C 15.132812 -10.5 15.648438 -9.394531 15.984375 -8.15625 C 16.328125 -6.925781 16.5 -5.65625 16.5 -4.34375 C 16.5 -2.957031 16.320312 -1.597656 15.96875 -0.265625 C 15.625 1.066406 15.101562 2.289062 14.40625 3.40625 C 13.71875 4.53125 12.863281 5.4375 11.84375 6.125 C 10.820312 6.820312 9.65625 7.222656 8.34375 7.328125 L 7.9375 7.328125 C 6.769531 7.328125 5.734375 6.992188 4.828125 6.328125 C 3.921875 5.660156 3.160156 4.769531 2.546875 3.65625 C 1.929688 2.550781 1.457031 1.316406 1.125 -0.046875 C 0.800781 -1.421875 0.640625 -2.816406 0.640625 -4.234375 C 0.640625 -5.566406 0.785156 -6.847656 1.078125 -8.078125 C 1.367188 -9.316406 1.820312 -10.429688 2.4375 -11.421875 C 3.050781 -12.421875 3.820312 -13.207031 4.75 -13.78125 C 5.6875 -14.363281 6.796875 -14.65625 8.078125 -14.65625 Z M 7.625 4.5 C 8.03125 4.5 8.398438 4.234375 8.734375 3.703125 C 9.078125 3.171875 9.378906 2.46875 9.640625 1.59375 C 9.910156 0.726562 10.117188 -0.234375 10.265625 -1.296875 C 10.421875 -2.367188 10.5 -3.4375 10.5 -4.5 C 10.5 -5.675781 10.394531 -6.773438 10.1875 -7.796875 C 9.988281 -8.816406 9.65625 -9.640625 9.1875 -10.265625 C 8.726562 -10.898438 8.117188 -11.21875 7.359375 -11.21875 L 7.25 -11.21875 C 6.71875 -11.1875 6.269531 -10.804688 5.90625 -10.078125 C 5.539062 -9.347656 5.269531 -8.410156 5.09375 -7.265625 C 4.914062 -6.117188 4.828125 -4.90625 4.828125 -3.625 C 4.828125 -2.289062 4.925781 -1.003906 5.125 0.234375 C 5.332031 1.484375 5.628906 2.503906 6.015625 3.296875 C 6.410156 4.097656 6.910156 4.5 7.515625 4.5 Z M 7.625 4.5 "/></g></g></g><g fill="#000000" fill-opacity="1"><g transform="translate(255.139113, 43.16583)"><g><path d="M 1.359375 -12.34375 C 1.640625 -13.550781 2.148438 -14.410156 2.890625 -14.921875 C 3.628906 -15.441406 4.425781 -15.703125 5.28125 -15.703125 C 5.9375 -15.703125 6.550781 -15.578125 7.125 -15.328125 C 7.707031 -15.078125 8.179688 -14.738281 8.546875 -14.3125 C 8.910156 -13.882812 9.09375 -13.394531 9.09375 -12.84375 C 9.09375 -12.769531 9.09375 -12.691406 9.09375 -12.609375 C 9.09375 -12.535156 9.082031 -12.460938 9.0625 -12.390625 C 9.289062 -12.460938 9.660156 -12.597656 10.171875 -12.796875 C 10.691406 -13.003906 11.316406 -13.195312 12.046875 -13.375 C 12.773438 -13.550781 13.554688 -13.640625 14.390625 -13.640625 C 14.890625 -13.640625 15.40625 -13.59375 15.9375 -13.5 C 16.46875 -13.414062 16.992188 -13.257812 17.515625 -13.03125 C 18.734375 -12.65625 19.691406 -11.898438 20.390625 -10.765625 C 21.097656 -9.628906 21.609375 -8.289062 21.921875 -6.75 C 22.234375 -5.21875 22.390625 -3.625 22.390625 -1.96875 C 22.390625 -0.601562 22.300781 0.726562 22.125 2.03125 C 21.945312 3.34375 21.707031 4.546875 21.40625 5.640625 C 21.101562 6.734375 20.75 7.632812 20.34375 8.34375 C 19.945312 9.050781 19.535156 9.476562 19.109375 9.625 C 18.878906 9.726562 18.648438 9.816406 18.421875 9.890625 C 18.203125 9.972656 17.976562 10.015625 17.75 10.015625 C 17.320312 10.015625 16.90625 9.875 16.5 9.59375 C 16.25 9.394531 16.078125 9.09375 15.984375 8.6875 C 15.898438 8.28125 15.859375 7.789062 15.859375 7.21875 C 15.859375 6.28125 15.941406 5.175781 16.109375 3.90625 C 16.273438 2.632812 16.4375 1.289062 16.59375 -0.125 C 16.757812 -1.550781 16.84375 -2.945312 16.84375 -4.3125 C 16.84375 -5.519531 16.738281 -6.660156 16.53125 -7.734375 C 16.332031 -8.816406 15.957031 -9.765625 15.40625 -10.578125 C 14.957031 -11.273438 14.300781 -11.625 13.4375 -11.625 C 12.707031 -11.625 11.960938 -11.390625 11.203125 -10.921875 C 10.453125 -10.460938 9.878906 -9.894531 9.484375 -9.21875 C 9.359375 -8.96875 9.269531 -8.710938 9.21875 -8.453125 C 9.164062 -8.203125 9.140625 -7.941406 9.140625 -7.671875 C 9.140625 -7.492188 9.144531 -7.304688 9.15625 -7.109375 C 9.164062 -6.921875 9.171875 -6.742188 9.171875 -6.578125 C 9.097656 -4.285156 8.925781 -1.894531 8.65625 0.59375 C 8.394531 3.09375 8.066406 5.472656 7.671875 7.734375 C 7.566406 8.390625 7.21875 8.890625 6.625 9.234375 C 6.03125 9.578125 5.382812 9.75 4.6875 9.75 C 3.957031 9.75 3.273438 9.554688 2.640625 9.171875 C 2.015625 8.796875 1.640625 8.242188 1.515625 7.515625 C 1.410156 6.785156 1.320312 5.769531 1.25 4.46875 C 1.175781 3.175781 1.117188 1.75 1.078125 0.1875 C 1.035156 -1.375 1.015625 -2.910156 1.015625 -4.421875 C 1.015625 -6.285156 1.046875 -7.953125 1.109375 -9.421875 C 1.171875 -10.890625 1.253906 -11.863281 1.359375 -12.34375 Z M 1.359375 -12.34375 "/></g></g></g></svg>